<svg width="170" height="26" viewBox="0 0 170 26" fill="none" xmlns="http://www.w3.org/2000/svg">
<path d="M14.3218 0.566397V10.1951H6.71585V0.566397H0V25.6497H6.71585V15.94H14.3218V25.6497H21.0376V0.566397H14.3218ZM32.1228 25.9733C37.9486 25.9733 41.4279 22.9795 41.4279 18.1247C41.4279 14.6454 39.8905 12.5416 36.0067 10.9234L32.6083 9.46692C30.99 8.73869 30.4236 8.25321 30.4236 7.36316C30.4236 6.23037 31.5564 5.50214 33.2556 5.50214C35.9258 5.50214 38.1104 6.79676 38.7577 6.79676C38.9196 6.79676 39.0814 6.79676 39.2432 6.63494C39.405 6.55402 39.486 6.39219 39.486 6.23037L41.0233 1.94193C38.5959 0.647311 35.8448 0 33.0938 0C27.5107 0 23.8696 2.99381 23.8696 7.36316C23.8696 10.7615 25.407 13.0271 28.8862 14.5645L32.851 16.3446C34.1456 16.911 34.712 17.5583 34.712 18.4484C34.712 19.8239 33.7411 20.4712 31.7182 20.4712C28.6435 20.4712 25.9733 19.0957 25.407 19.0957C25.2451 19.0957 25.0024 19.1766 24.9215 19.2575C24.7596 19.3384 24.6787 19.5002 24.5978 19.6621L23.3841 24.1123C26.297 25.4069 29.2099 25.9733 32.1228 25.9733ZM60.8472 25.5688V20.7139C60.8472 20.0666 60.6045 19.8239 59.9572 19.8239H51.4612V0.566397H44.7454V25.6497H60.8472V25.5688ZM72.6606 25.9733C79.6192 25.9733 83.0985 22.3322 83.0985 14.9691V0.566397H76.3827V14.4836C76.3827 18.6102 75.3308 20.1475 72.6606 20.1475C69.9905 20.1475 68.9386 18.6102 68.9386 14.4836V0.566397H62.2228V15.05C62.1418 22.3322 65.6211 26.0543 72.6606 25.9733Z" fill="#2D859C"/>
<path d="M90.8787 11.3279C91.1215 11.3279 91.2833 11.247 91.2833 10.9234V6.39219H95.8954V10.9234C95.8954 11.247 96.0572 11.3279 96.3 11.3279H97.5946C97.8373 11.3279 97.9992 11.247 97.9992 10.9234V0.404569C97.9992 0.0809138 97.8373 0 97.5946 0H96.3C96.0572 0 95.8954 0.0809138 95.8954 0.404569V4.53117H91.2833V0.404569C91.2833 0.0809138 91.1215 0 90.8787 0H89.5841C89.3414 0 89.0986 0.0809138 89.0986 0.404569V10.9234C89.0986 11.247 89.2605 11.3279 89.5841 11.3279H90.8787ZM103.501 11.4898C105.929 11.4898 107.547 9.79057 107.547 7.28224C107.547 4.61209 106.091 3.07473 103.582 3.07473C101.074 3.07473 99.5365 4.693 99.5365 7.28224C99.5365 9.9524 101.074 11.5707 103.501 11.4898ZM103.501 9.9524C102.288 9.9524 101.64 8.98143 101.64 7.28224C101.64 5.66397 102.368 4.693 103.582 4.693C104.796 4.693 105.443 5.58305 105.443 7.28224C105.443 8.98143 104.715 9.9524 103.501 9.9524ZM112.725 11.4898C113.535 11.4898 114.344 11.3279 115.153 11.0043C115.396 10.9234 115.396 10.7615 115.315 10.5188L115.072 9.70966C114.991 9.54783 114.91 9.54783 114.748 9.54783C114.182 9.79057 113.616 9.9524 113.049 9.9524C111.674 9.9524 110.864 8.98143 110.864 7.28224C110.864 5.58305 111.674 4.693 113.13 4.693C113.696 4.693 114.182 4.77392 114.748 5.01666C114.91 5.09757 115.072 5.09757 115.153 4.85483L115.396 3.96478C115.477 3.72204 115.396 3.64112 115.234 3.56021C114.506 3.23655 113.777 3.07473 113.049 3.07473C110.541 3.07473 108.923 4.77392 108.923 7.36316C108.761 9.9524 110.217 11.4898 112.725 11.4898ZM117.095 11.3279H118.389C118.632 11.3279 118.713 11.1661 118.713 10.9234V5.66397C119.28 5.17848 120.008 4.93574 120.736 4.85483C121.707 4.85483 121.95 5.50214 121.95 6.47311V10.9234C121.95 11.247 122.111 11.3279 122.354 11.3279H123.487C123.811 11.3279 123.892 11.247 123.892 10.9234V6.06854C123.892 4.28843 123.163 3.15564 121.302 3.15564C120.331 3.15564 119.441 3.47929 118.713 4.1266V0.404569C118.713 0.0809138 118.551 0 118.309 0H117.257C117.014 0 116.771 0.0809138 116.771 0.404569V10.9234C116.771 11.0043 116.771 11.0043 116.771 11.0852C116.771 11.1661 116.852 11.1661 116.852 11.247C116.852 11.247 116.933 11.3279 117.014 11.3279C117.014 11.3279 117.095 11.3279 117.095 11.3279ZM128.18 11.4898C130.122 11.4898 131.417 10.4379 131.417 8.90052C131.417 8.41504 131.255 7.92955 131.012 7.6059C130.769 7.20133 130.365 6.95859 129.879 6.79676L128.342 6.23036C127.775 5.98762 127.533 5.74488 127.533 5.34031C127.533 4.93574 127.937 4.61209 128.504 4.61209C129.151 4.61209 129.798 4.693 130.365 5.01666L130.446 5.09757C130.527 5.09757 130.527 5.09757 130.607 5.09757C130.607 5.09757 130.688 5.09757 130.688 5.01666L130.769 4.93574L131.093 4.04569C131.174 3.80295 131.093 3.72204 130.931 3.64112C130.203 3.31747 129.313 3.15564 128.504 3.15564C126.724 3.15564 125.51 4.12661 125.51 5.50214C125.51 5.98762 125.672 6.47311 125.995 6.87768C126.319 7.28224 126.724 7.6059 127.209 7.68681L128.504 8.1723C129.232 8.41504 129.475 8.73869 129.475 9.14326C129.475 9.70966 128.989 10.0333 128.18 10.0333C127.452 10.0333 126.804 9.79057 126.157 9.54783C125.995 9.46692 125.834 9.54783 125.753 9.70966L125.429 10.5997V10.6806C125.429 10.7615 125.429 10.7615 125.429 10.7615L125.51 10.8425L125.591 10.9234C126.4 11.3279 127.29 11.4898 128.18 11.4898ZM136.352 11.4898C137.161 11.4898 137.971 11.3279 138.78 11.0043C139.022 10.9234 139.022 10.7615 138.942 10.5188L138.699 9.70966C138.618 9.54783 138.537 9.54783 138.375 9.54783C137.809 9.79057 137.242 9.9524 136.676 9.9524C135.3 9.9524 134.491 8.98143 134.491 7.28224C134.491 5.58305 135.3 4.693 136.757 4.693C137.323 4.693 137.89 4.77392 138.375 5.01666C138.537 5.09757 138.699 5.09757 138.78 4.85483L139.022 3.96478C139.103 3.72204 139.022 3.64112 138.861 3.56021C138.132 3.23655 137.404 3.07473 136.676 3.07473C134.168 3.07473 132.549 4.77392 132.549 7.36316C132.468 9.9524 133.925 11.4898 136.352 11.4898ZM142.097 11.3279C142.34 11.3279 142.421 11.1661 142.421 10.9234V5.66397C142.987 5.17848 143.715 4.93574 144.444 4.85483C145.415 4.85483 145.657 5.50214 145.657 6.47311V10.9234C145.657 11.247 145.819 11.3279 146.062 11.3279H147.195C147.518 11.3279 147.599 11.247 147.599 10.9234V6.06854C147.599 4.28843 146.871 3.15564 145.01 3.15564C144.039 3.15564 143.149 3.47929 142.421 4.1266V0.404569C142.421 0.0809138 142.259 0 142.016 0H140.883C140.641 0 140.479 0.0809138 140.479 0.404569V10.9234C140.479 11.0043 140.479 11.0043 140.479 11.0852C140.479 11.1661 140.56 11.1661 140.56 11.247C140.56 11.247 140.641 11.3279 140.722 11.3279C140.803 11.3279 140.803 11.3279 140.883 11.3279H142.097ZM152.05 11.4898C153.021 11.4898 153.911 11.0852 154.639 10.4379V10.9234C154.639 11.1661 154.801 11.247 155.043 11.247H156.095C156.419 11.247 156.5 11.0852 156.5 10.8425V3.72204C156.5 3.47929 156.338 3.31747 156.095 3.31747H155.043C154.801 3.31747 154.639 3.39838 154.639 3.72204V8.98143C154.072 9.46692 153.425 9.70966 152.697 9.79057C151.888 9.79057 151.483 9.30509 151.483 8.1723V3.72204C151.483 3.47929 151.402 3.31747 151.079 3.31747H149.946C149.622 3.31747 149.541 3.47929 149.541 3.72204V8.57687C149.46 10.5188 150.35 11.5707 152.05 11.4898ZM158.927 11.3279H160.222C160.465 11.3279 160.546 11.1661 160.546 10.9234V0.404569C160.546 0.0809138 160.384 0 160.141 0H159.008C158.765 0 158.604 0.0809138 158.604 0.404569V10.9234C158.604 11.0043 158.604 11.0043 158.604 11.0852C158.604 11.1661 158.685 11.1661 158.685 11.247C158.685 11.247 158.765 11.3279 158.846 11.3279C158.846 11.3279 158.927 11.3279 158.927 11.3279ZM166.29 11.4898C167.261 11.4898 168.232 11.3279 169.122 11.0043C169.203 11.0043 169.203 11.0043 169.284 10.9234L169.365 10.8425C169.365 10.7615 169.365 10.7615 169.365 10.6806C169.365 10.5997 169.365 10.5997 169.365 10.5188L169.122 9.62874C169.042 9.46692 168.961 9.386 168.718 9.46692C168.071 9.70966 167.423 9.87149 166.695 9.87149C166.129 9.87149 165.481 9.70966 165.077 9.30509C164.672 8.90052 164.349 8.33412 164.349 7.76773H169.122C169.527 7.76773 169.689 7.68681 169.689 7.28224V7.0395C169.689 4.61209 168.394 3.07473 166.29 3.07473C163.863 3.07473 162.164 4.77392 162.164 7.28224C162.164 9.9524 163.701 11.5707 166.29 11.4898ZM164.268 6.47311C164.268 5.98762 164.51 5.50214 164.834 5.17848C165.158 4.85483 165.643 4.61209 166.129 4.61209C166.371 4.61209 166.533 4.693 166.776 4.77392C166.938 4.85483 167.181 5.01666 167.261 5.09757C167.423 5.2594 167.504 5.42123 167.585 5.66397C167.666 5.8258 167.666 6.06854 167.666 6.31128V6.47311H164.268Z" fill="#2D859C"/>
<path d="M89.5841 24.7411H95.4099C95.6527 24.7411 95.8145 24.6602 95.8145 24.3366V23.3656C95.8145 23.2847 95.8145 23.2847 95.8145 23.2038C95.8145 23.1229 95.7336 23.1229 95.7336 23.0419C95.7336 23.0419 95.6527 22.961 95.5717 22.961C95.4908 22.961 95.4908 22.961 95.4099 22.961H91.2024V13.8987C91.2024 13.575 91.1215 13.4941 90.7978 13.4941H89.5032C89.2605 13.4941 89.0986 13.6559 89.0986 13.8987V24.3366C89.0986 24.6602 89.2605 24.7411 89.5841 24.7411ZM99.7793 24.9839C100.75 24.9839 101.64 24.5793 102.369 23.932V24.4175C102.369 24.6602 102.53 24.7411 102.773 24.7411H103.825C104.149 24.7411 104.23 24.5793 104.23 24.3366V17.1352C104.23 16.8925 104.068 16.7307 103.825 16.7307H102.611C102.369 16.7307 102.207 16.8116 102.207 17.1352V22.3946C101.64 22.8801 100.993 23.1229 100.265 23.2038C99.4556 23.2038 99.051 22.7183 99.051 21.5855V17.0543C99.051 16.8116 98.9701 16.6497 98.6465 16.6497H97.5946C97.2709 16.6497 97.19 16.8116 97.19 17.0543V21.9091C97.1091 23.932 97.9992 24.9839 99.7793 24.9839ZM108.113 23.2847L111.674 18.1062C111.755 17.9444 111.835 17.7825 111.835 17.5398V17.0543C111.835 16.8925 111.755 16.7307 111.431 16.7307H106.171C105.929 16.7307 105.848 16.8925 105.848 17.0543V17.7825C105.848 18.1062 105.929 18.1871 106.252 18.1871H109.246L105.767 23.3656C105.605 23.5274 105.605 23.6893 105.605 23.932V24.3366C105.605 24.4175 105.605 24.4175 105.605 24.4984C105.605 24.5793 105.686 24.5793 105.686 24.6602C105.686 24.6602 105.767 24.7411 105.848 24.7411C105.929 24.7411 105.929 24.7411 106.01 24.7411H111.593C111.674 24.7411 111.674 24.7411 111.755 24.7411C111.755 24.7411 111.835 24.7411 111.835 24.6602L111.916 24.5793C111.916 24.5793 111.916 24.4984 111.916 24.4175V23.5274C111.916 23.2847 111.755 23.2847 111.593 23.2847H108.113ZM116.771 24.9839C117.742 24.9839 118.713 24.822 119.603 24.4984C119.684 24.4984 119.684 24.4175 119.765 24.4175C119.765 24.4175 119.846 24.3366 119.846 24.2557C119.846 24.1747 119.846 24.1747 119.846 24.0938C119.846 24.0129 119.846 24.0129 119.846 23.932L119.603 23.1229C119.522 22.961 119.441 22.8801 119.199 22.961C118.551 23.2038 117.904 23.3656 117.176 23.3656C116.609 23.3656 115.962 23.2038 115.557 22.7992C115.153 22.3946 114.829 21.8282 114.829 21.2618H119.684C120.089 21.2618 120.25 21.1809 120.25 20.7764V20.5336C120.25 18.1062 118.956 16.5688 116.852 16.5688C114.425 16.5688 112.725 18.268 112.725 20.7764C112.645 23.3656 114.182 24.9839 116.771 24.9839ZM114.748 19.8863C114.748 19.4008 114.991 18.9153 115.315 18.5917C115.638 18.268 116.124 18.0253 116.609 18.0253C116.852 18.0253 117.014 18.1062 117.257 18.1871C117.418 18.268 117.661 18.4299 117.742 18.5108C117.904 18.6726 117.985 18.8344 118.066 19.0772C118.147 19.239 118.147 19.4817 118.147 19.7245V19.8863H114.748ZM122.111 24.7411H123.325C123.568 24.7411 123.73 24.5793 123.73 24.3366V19.0772C123.892 18.8344 124.134 18.6726 124.458 18.5108C124.701 18.3489 125.024 18.268 125.348 18.268C125.51 18.268 125.591 18.268 125.834 18.268C126.076 18.268 126.157 18.268 126.157 18.0253L126.319 16.8116C126.319 16.7307 126.319 16.7307 126.319 16.6497C126.319 16.5688 126.319 16.5688 126.238 16.4879C126.076 16.407 125.914 16.3261 125.672 16.407C125.267 16.407 124.863 16.4879 124.539 16.7307C124.215 16.8925 123.892 17.2161 123.649 17.5398V17.0543C123.649 16.8116 123.487 16.7307 123.244 16.7307H122.111C121.788 16.7307 121.707 16.8116 121.707 17.1352V24.3366C121.707 24.6602 121.788 24.7411 122.111 24.7411ZM127.775 24.7411H128.989C129.313 24.7411 129.394 24.5793 129.394 24.3366V19.0772C129.879 18.5917 130.607 18.3489 131.255 18.268C132.145 18.268 132.549 18.7535 132.549 19.8863V24.3366C132.549 24.6602 132.711 24.7411 132.954 24.7411H134.168C134.41 24.7411 134.572 24.5793 134.572 24.3366V19.4817C134.572 17.5398 133.682 16.5688 131.983 16.5688C131.012 16.5688 130.041 16.9734 129.313 17.6207V17.0543C129.313 16.8116 129.151 16.7307 128.908 16.7307H127.856C127.775 16.7307 127.775 16.7307 127.695 16.7307C127.614 16.7307 127.614 16.8116 127.533 16.8116C127.533 16.8116 127.452 16.8925 127.452 16.9734C127.452 17.0543 127.452 17.0543 127.452 17.1352V24.3366C127.452 24.4175 127.452 24.4175 127.452 24.4984C127.452 24.5793 127.533 24.5793 127.533 24.6602C127.533 24.6602 127.614 24.7411 127.695 24.7411C127.614 24.7411 127.695 24.7411 127.775 24.7411Z" fill="#2D859C"/>
</svg>
