<svg width="18" height="18" viewBox="0 0 18 18" fill="none" xmlns="http://www.w3.org/2000/svg">
<path d="M6.81261 8.09609C6.90765 8.04123 6.98656 7.96231 7.04142 7.86727C7.09627 7.77223 7.12514 7.66442 7.12511 7.55469V1.92969C7.12456 1.83004 7.10018 1.73198 7.05402 1.64367C7.00786 1.55536 6.94126 1.47936 6.85976 1.42202C6.77826 1.36469 6.68424 1.32766 6.58553 1.31405C6.48681 1.30043 6.38628 1.31062 6.2923 1.34375C4.46807 1.98939 2.93396 3.26457 1.96575 4.94005C0.997549 6.61554 0.658754 8.58145 1.01027 10.4844C1.02849 10.5828 1.07008 10.6754 1.13153 10.7544C1.19298 10.8333 1.27249 10.8964 1.3634 10.9383C1.44531 10.9766 1.53468 10.9963 1.62511 10.9961C1.73481 10.9961 1.84259 10.9673 1.93761 10.9125L6.81261 8.09609ZM5.87511 2.87656V7.19375L2.13449 9.35234C2.12511 9.23437 2.12511 9.11563 2.12511 9C2.12622 7.73309 2.4769 6.49106 3.13855 5.41066C3.80019 4.33025 4.74713 3.45337 5.87511 2.87656ZM17.1251 9C17.1257 10.7837 16.5394 12.518 15.4565 13.9354C14.3737 15.3528 12.8545 16.3745 11.1334 16.8428C9.41224 17.3111 7.58484 17.2 5.9331 16.5267C4.28137 15.8534 2.8971 14.6553 1.99386 13.1172C1.95176 13.0461 1.92415 12.9675 1.91263 12.8857C1.90112 12.8039 1.90592 12.7207 1.92677 12.6407C1.94762 12.5608 1.9841 12.4859 2.0341 12.4201C2.0841 12.3544 2.14664 12.2992 2.21808 12.2578L8.37511 8.67422V1.5C8.37511 1.33424 8.44096 1.17527 8.55817 1.05806C8.67538 0.940848 8.83435 0.875 9.00011 0.875C10.418 0.875723 11.811 1.24729 13.0409 1.95282C14.2707 2.65834 15.2947 3.67328 16.0111 4.89688C16.0196 4.90938 16.0275 4.92188 16.0353 4.93516C16.0431 4.94844 16.0509 4.96406 16.0579 4.97812C16.759 6.20247 17.1269 7.58916 17.1251 9Z" fill="#2D859C"/>
</svg>
