<svg width="18" height="18" viewBox="0 0 18 18" fill="none" xmlns="http://www.w3.org/2000/svg">
<path d="M3.87508 13.25C4.58341 12.7083 5.37508 12.2812 6.25008 11.9687C7.12508 11.6562 8.04175 11.5 9.00008 11.5C9.95841 11.5 10.8751 11.6562 11.7501 11.9687C12.6251 12.2812 13.4167 12.7083 14.1251 13.25C14.6112 12.6805 14.9897 12.0347 15.2605 11.3125C15.5313 10.5903 15.6667 9.81943 15.6667 8.99999C15.6667 7.15277 15.0174 5.57985 13.7188 4.28124C12.4202 2.98263 10.8473 2.33332 9.00008 2.33332C7.15286 2.33332 5.57994 2.98263 4.28133 4.28124C2.98272 5.57985 2.33341 7.15277 2.33341 8.99999C2.33341 9.81943 2.46883 10.5903 2.73966 11.3125C3.0105 12.0347 3.38897 12.6805 3.87508 13.25ZM9.00008 9.83332C8.18064 9.83332 7.48966 9.55207 6.92716 8.98957C6.36466 8.42707 6.08341 7.7361 6.08341 6.91666C6.08341 6.09721 6.36466 5.40624 6.92716 4.84374C7.48966 4.28124 8.18064 3.99999 9.00008 3.99999C9.81953 3.99999 10.5105 4.28124 11.073 4.84374C11.6355 5.40624 11.9167 6.09721 11.9167 6.91666C11.9167 7.7361 11.6355 8.42707 11.073 8.98957C10.5105 9.55207 9.81953 9.83332 9.00008 9.83332ZM9.00008 17.3333C7.8473 17.3333 6.76397 17.1146 5.75008 16.6771C4.73619 16.2396 3.85425 15.6458 3.10425 14.8958C2.35425 14.1458 1.7605 13.2639 1.323 12.25C0.885498 11.2361 0.666748 10.1528 0.666748 8.99999C0.666748 7.84721 0.885498 6.76388 1.323 5.74999C1.7605 4.7361 2.35425 3.85416 3.10425 3.10416C3.85425 2.35416 4.73619 1.76041 5.75008 1.32291C6.76397 0.885406 7.8473 0.666656 9.00008 0.666656C10.1529 0.666656 11.2362 0.885406 12.2501 1.32291C13.264 1.76041 14.1459 2.35416 14.8959 3.10416C15.6459 3.85416 16.2397 4.7361 16.6772 5.74999C17.1147 6.76388 17.3334 7.84721 17.3334 8.99999C17.3334 10.1528 17.1147 11.2361 16.6772 12.25C16.2397 13.2639 15.6459 14.1458 14.8959 14.8958C14.1459 15.6458 13.264 16.2396 12.2501 16.6771C11.2362 17.1146 10.1529 17.3333 9.00008 17.3333ZM9.00008 15.6667C9.73619 15.6667 10.4306 15.559 11.0834 15.3437C11.7362 15.1285 12.3334 14.8194 12.8751 14.4167C12.3334 14.0139 11.7362 13.7049 11.0834 13.4896C10.4306 13.2743 9.73619 13.1667 9.00008 13.1667C8.26397 13.1667 7.56953 13.2743 6.91675 13.4896C6.26397 13.7049 5.66675 14.0139 5.12508 14.4167C5.66675 14.8194 6.26397 15.1285 6.91675 15.3437C7.56953 15.559 8.26397 15.6667 9.00008 15.6667ZM9.00008 8.16666C9.36119 8.16666 9.6598 8.0486 9.89591 7.81249C10.132 7.57638 10.2501 7.27777 10.2501 6.91666C10.2501 6.55555 10.132 6.25693 9.89591 6.02082C9.6598 5.78471 9.36119 5.66666 9.00008 5.66666C8.63897 5.66666 8.34036 5.78471 8.10425 6.02082C7.86814 6.25693 7.75008 6.55555 7.75008 6.91666C7.75008 7.27777 7.86814 7.57638 8.10425 7.81249C8.34036 8.0486 8.63897 8.16666 9.00008 8.16666Z" fill="#2D859C"/>
</svg>
