<svg width="18" height="14" viewBox="0 0 18 14" fill="none" xmlns="http://www.w3.org/2000/svg">
<path d="M2.33341 13.6667C1.87508 13.6667 1.48272 13.5035 1.15633 13.1771C0.829943 12.8507 0.666748 12.4583 0.666748 12V2.00001C0.666748 1.54168 0.829943 1.14932 1.15633 0.822927C1.48272 0.496538 1.87508 0.333344 2.33341 0.333344H7.33341L9.00008 2.00001H15.6667C16.1251 2.00001 16.5174 2.1632 16.8438 2.48959C17.1702 2.81598 17.3334 3.20834 17.3334 3.66668V12C17.3334 12.4583 17.1702 12.8507 16.8438 13.1771C16.5174 13.5035 16.1251 13.6667 15.6667 13.6667H2.33341ZM2.33341 12H15.6667V3.66668H8.31258L6.64591 2.00001H2.33341V12Z" fill="#2D859C"/>
</svg>
