<svg width="20" height="20" viewBox="0 0 20 20" fill="none" xmlns="http://www.w3.org/2000/svg">
<mask id="mask0_79_141" style="mask-type:alpha" maskUnits="userSpaceOnUse" x="0" y="0" width="20" height="20">
<rect width="20" height="20" fill="#D9D9D9"/>
</mask>
<g mask="url(#mask0_79_141)">
<path d="M7.5 7.5V6H14.5V7.5H7.5ZM7.5 10V8.5H14.5V10H7.5ZM10.5 18H5C4.44444 18 3.97222 17.8056 3.58333 17.4167C3.19444 17.0278 3 16.5556 3 16V13H5V2H17V9.52083C16.7222 9.53472 16.4583 9.58333 16.2083 9.66667C15.9583 9.75 15.7222 9.88194 15.5 10.0625V3.5H6.5V13H12.5208L11.0208 14.5H4.5V16C4.5 16.1417 4.54792 16.2604 4.64375 16.3562C4.73958 16.4521 4.85833 16.5 5 16.5H10.5V18ZM12 18V15.6458L16.375 11.2917C16.4758 11.1888 16.5878 11.1144 16.711 11.0685C16.8342 11.0228 16.9567 11 17.0783 11C17.211 11 17.3381 11.0243 17.4598 11.0729C17.5815 11.1215 17.6921 11.1944 17.7917 11.2917L18.7083 12.2292C18.7999 12.33 18.8713 12.442 18.9227 12.5652C18.9742 12.6884 19 12.8108 19 12.9325C19 13.0542 18.9772 13.1786 18.9315 13.3058C18.8856 13.4329 18.8113 13.5463 18.7083 13.6458L14.3542 18H12ZM13 17H13.9375L16.3333 14.6042L15.875 14.125L15.4167 13.6667L13 16.0625V17ZM15.875 14.125L15.4167 13.6667L16.3333 14.6042L15.875 14.125Z" fill="#2D859C"/>
</g>
</svg>
