<svg width="116" height="47" viewBox="0 0 116 47" fill="none" xmlns="http://www.w3.org/2000/svg">
<path d="M17.312 16.568C17.312 16.904 17.192 17 16.88 17H15.512C15.176 17 15.08 16.856 15.056 16.448L14.648 4.832H14.6L9.968 16.712C9.872 16.952 9.728 17 9.536 17H8.72C8.48 17 8.36 16.952 8.24 16.664L3.224 4.832H3.2L2.912 16.568C2.912 16.904 2.792 17 2.432 17H1.256C0.944 17 0.824 16.904 0.824 16.592V16.544L1.376 0.967999C1.4 0.559999 1.496 0.464 1.76 0.464H2.792C3.176 0.464 3.296 0.559999 3.416 0.823999L9.248 13.904H9.272L14.648 0.847999C14.768 0.559999 14.888 0.464 15.176 0.464H16.28C16.568 0.464 16.64 0.584 16.664 0.896L17.312 16.496V16.52C17.312 16.544 17.312 16.544 17.312 16.568ZM30.4614 5.648C30.4614 5.72 30.4374 5.792 30.4134 5.864L25.7334 18.416C24.6774 21.248 23.4774 22.256 20.8854 22.256C20.5254 22.256 20.1654 22.232 19.8054 22.16C19.5894 22.112 19.5414 21.968 19.5414 21.8C19.5414 21.752 19.5414 21.728 19.5414 21.68L19.6614 20.768C19.6854 20.528 19.8054 20.432 20.0214 20.432C20.0454 20.432 20.0694 20.432 20.1174 20.432C20.3814 20.456 20.7174 20.504 20.9574 20.504C22.2774 20.504 23.0694 19.976 23.5734 18.728L24.1974 17.192L19.9014 5.816C19.8774 5.768 19.8774 5.696 19.8774 5.648C19.8774 5.504 19.9494 5.408 20.1414 5.408H21.7254C21.9654 5.408 22.1094 5.504 22.1814 5.72L25.3014 14.696L28.3254 5.768C28.4214 5.504 28.5414 5.408 28.8294 5.408H30.1494C30.3654 5.408 30.4614 5.504 30.4614 5.648ZM44.2938 15.8C44.2938 15.968 44.1738 16.112 43.9578 16.208C42.4938 16.904 40.9818 17.24 39.3258 17.24C34.3098 17.24 31.9578 13.424 31.9578 8.744C31.9578 4.16 34.6938 0.175999 39.4938 0.175999C41.0778 0.175999 42.5658 0.511999 43.8858 1.256C44.0778 1.376 44.1738 1.448 44.1738 1.592C44.1738 1.664 44.1498 1.76 44.1018 1.88L43.7178 2.768C43.6458 2.936 43.5498 3.008 43.4298 3.008C43.3578 3.008 43.2858 2.984 43.2138 2.936C42.0858 2.288 40.9098 1.976 39.6378 1.976C38.1018 1.976 36.7338 2.648 35.8218 3.8C34.7658 5.096 34.3338 6.848 34.3338 8.624C34.3338 12.224 35.9658 15.464 39.6378 15.464C40.8138 15.464 42.2538 15.128 43.3818 14.576C43.4538 14.528 43.5258 14.504 43.5978 14.504C43.7178 14.504 43.8378 14.6 43.9098 14.792L44.2218 15.536C44.2698 15.632 44.2938 15.728 44.2938 15.8ZM56.591 16.688C56.591 16.928 56.471 17 56.231 17H55.223C54.167 17 53.663 16.184 53.663 15.224H53.615C53.063 16.28 51.479 17.24 50.015 17.24C46.703 17.24 45.239 14.432 45.239 11.408C45.239 7.4 47.615 5.144 50.351 5.144C51.551 5.144 52.847 5.648 53.567 6.608L53.591 5.816C53.591 5.528 53.783 5.408 54.047 5.408H55.127C55.415 5.408 55.559 5.552 55.559 5.864V14.264C55.559 14.816 55.583 15.2 55.679 15.344C55.775 15.512 55.895 15.56 56.087 15.56H56.255C56.471 15.56 56.591 15.608 56.591 15.872V16.688ZM53.519 13.112V8.504C52.943 7.424 51.767 6.776 50.615 6.776C48.767 6.776 47.375 8.408 47.375 11.264C47.375 13.904 48.599 15.536 50.327 15.536C51.863 15.536 53.087 14.312 53.519 13.112ZM75.5771 16.496C75.5771 16.832 75.4331 17 75.1211 17H74.0171C73.7051 17 73.5371 16.832 73.5371 16.496V9.752C73.5371 8.024 73.1051 6.824 71.1611 6.824C70.1771 6.824 69.0011 7.304 68.1611 7.952C68.3051 8.408 68.3531 9.848 68.3531 10.592V16.496C68.3531 16.832 68.2091 17 67.8971 17H66.7931C66.4811 17 66.3131 16.832 66.3131 16.496V9.752C66.3131 8.096 65.9531 6.824 64.0571 6.824C62.9531 6.824 61.8011 7.448 60.9371 8.24V16.496C60.9371 16.832 60.7931 17 60.4811 17H59.3531C59.0411 17 58.8971 16.832 58.8971 16.496V5.888C58.8971 5.576 59.0651 5.408 59.3531 5.408H60.3851C60.6731 5.408 60.8651 5.528 60.8651 5.84L60.8891 6.584C61.8971 5.672 63.2411 5.144 64.5371 5.144C65.8571 5.144 67.0331 5.624 67.6571 6.632C68.7611 5.648 70.2731 5.144 71.6651 5.144C73.2731 5.144 74.2811 5.744 74.8571 6.632C75.3611 7.424 75.5771 8.48 75.5771 9.824V16.496ZM89.1875 11.096C89.1875 14.288 87.4595 17.24 83.9795 17.24C82.8035 17.24 81.5315 16.784 80.8115 15.896V21.704C80.8115 22.064 80.5955 22.16 80.2835 22.16H79.2275C78.9155 22.16 78.7715 21.992 78.7715 21.656V5.84C78.7715 5.504 78.9155 5.408 79.2275 5.408H80.1395C80.4995 5.408 80.6915 5.504 80.6915 5.84V6.68C81.4595 5.768 82.8995 5.144 84.2675 5.144C87.6755 5.144 89.1875 8 89.1875 11.096ZM87.0515 11.144C87.0515 9.056 86.3555 6.776 83.8595 6.776C82.7315 6.776 81.4115 7.448 80.8115 8.312V13.952C81.3155 14.888 82.5395 15.632 83.7155 15.632C86.1875 15.632 87.0515 13.28 87.0515 11.144ZM101.285 16.472C101.285 16.832 101.141 17 100.805 17H99.773C99.485 17 99.317 16.832 99.317 16.544L99.293 15.8C98.189 16.736 96.893 17.24 95.501 17.24C92.741 17.24 91.733 15.464 91.733 12.896V5.888C91.733 5.552 91.901 5.408 92.213 5.408H93.293C93.605 5.408 93.773 5.552 93.773 5.888V12.584C93.773 14.288 94.157 15.488 96.077 15.488C97.133 15.488 98.477 14.792 99.245 14.072V5.888C99.245 5.552 99.389 5.408 99.701 5.408H100.829C101.141 5.408 101.285 5.552 101.285 5.888V16.472ZM111.563 13.664C111.563 15.872 109.715 17.24 107.171 17.24C105.947 17.24 104.675 16.832 103.883 16.472C103.715 16.4 103.643 16.28 103.643 16.16C103.643 16.112 103.643 16.064 103.667 16.016L103.979 15.152C104.027 15.008 104.123 14.912 104.243 14.912C104.291 14.912 104.339 14.912 104.387 14.936C105.275 15.32 106.427 15.656 107.243 15.656C108.635 15.656 109.571 14.984 109.571 13.856C109.571 12.92 108.875 12.416 107.771 11.984L106.163 11.36C104.747 10.808 103.691 9.848 103.691 8.336C103.691 6.224 105.611 5.144 107.723 5.144C108.755 5.144 109.763 5.312 110.843 5.816C110.987 5.888 111.059 5.96 111.059 6.056C111.059 6.104 111.035 6.176 111.011 6.248L110.747 7.088C110.699 7.256 110.603 7.328 110.483 7.328C110.435 7.328 110.363 7.304 110.291 7.28C109.667 6.992 108.539 6.704 107.771 6.704C106.499 6.704 105.803 7.376 105.803 8.192C105.803 9.008 106.283 9.392 107.291 9.824L109.163 10.616C110.483 11.168 111.563 12.128 111.563 13.664ZM15.08 37.72C15.08 43.48 11.216 46 6.344 46H1.448C0.968 46 0.68 45.88 0.68 45.256V30.112C0.68 29.584 0.824 29.344 1.472 29.344H5.264C11.216 29.344 15.08 31.336 15.08 37.72ZM11 37.696C11 34.12 9.224 32.632 5.84 32.632H4.496V42.76H6.2C8.6 42.76 11 41.728 11 37.696ZM29.3351 45.448C29.3351 45.808 29.0951 46 28.7591 46H27.4871C26.0711 46 25.4951 45.592 25.1831 44.896H25.1351C24.4871 45.64 22.9511 46.312 21.7751 46.312C18.3191 46.312 16.7111 43.576 16.7111 40.384C16.7111 36.136 19.3511 33.976 21.9911 33.976C23.3351 33.976 24.4151 34.6 24.9191 35.32L24.9911 34.792C25.0151 34.528 25.2311 34.312 25.5431 34.312H27.7031C28.0391 34.312 28.2791 34.504 28.2791 34.888V43.168C28.2791 43.408 28.3751 43.576 28.6391 43.576H28.8311C29.1671 43.576 29.3351 43.696 29.3351 44.056V45.448ZM24.6791 42.4V37.768C24.2471 37.384 23.4551 36.952 22.7351 36.952C21.5591 36.952 20.4551 37.912 20.4551 40.144C20.4551 41.632 20.8391 43.408 22.6631 43.408C23.5271 43.408 24.3911 42.76 24.6791 42.4ZM39.5403 42.496C39.5403 45.256 37.0923 46.312 34.7163 46.312C33.4443 46.312 32.0283 45.976 30.7083 45.424C30.4443 45.328 30.3723 45.16 30.3723 44.992C30.3723 44.896 30.3963 44.8 30.4203 44.704L30.9003 43.192C30.9963 42.88 31.0923 42.76 31.2603 42.76C31.3563 42.76 31.4763 42.784 31.6443 42.856C32.8203 43.336 33.9483 43.6 34.8123 43.6C35.5803 43.6 36.1083 43.288 36.1083 42.76C36.1083 42.304 35.8683 42.064 34.9803 41.728L32.8443 40.936C31.5483 40.456 30.3963 39.304 30.3963 37.576C30.3963 35.008 32.8443 33.976 34.9803 33.976C36.2283 33.976 37.4763 34.168 38.7483 34.744C38.9643 34.84 39.0843 34.96 39.0843 35.152C39.0843 35.224 39.0603 35.32 39.0363 35.416L38.5323 37.096C38.4843 37.288 38.3163 37.384 38.1243 37.384C38.0523 37.384 37.9563 37.36 37.8603 37.336C36.9483 37 35.9643 36.76 35.1963 36.76C34.4043 36.76 34.0443 37.192 34.0443 37.528C34.0443 37.816 34.1403 38.128 34.9563 38.44L37.3803 39.4C38.6043 39.88 39.5403 40.888 39.5403 42.496ZM52.5905 45.52C52.5905 45.928 52.5425 46 52.2065 46H49.3985C49.0385 46 48.9665 45.952 48.9665 45.52V38.896C48.9665 37.888 48.6785 37.216 47.5985 37.216C46.8065 37.216 45.7745 37.576 45.1025 38.152V45.52C45.1025 45.928 45.0305 46 44.6225 46H41.8865C41.5745 46 41.5025 45.904 41.5025 45.568V29.8C41.5025 29.296 41.7185 29.152 42.1025 29.104L44.2865 28.816C44.4065 28.792 44.5745 28.792 44.6705 28.792C44.9585 28.792 45.1025 28.936 45.1025 29.296V35.176C46.0385 34.384 47.5745 33.976 48.7745 33.976C51.3905 33.976 52.5905 35.656 52.5905 38.248V45.52ZM66.9433 40.192C66.9433 43.528 65.2153 46.312 61.6393 46.312C60.7033 46.312 59.3593 45.736 58.7113 45.064C58.6633 45.592 58.6633 46 58.0153 46H56.1433C55.6393 46 55.4713 45.76 55.4713 45.28V29.848C55.4713 29.416 55.5913 29.176 56.0473 29.104L58.3993 28.792C58.4473 28.792 58.5433 28.768 58.5913 28.768C58.9273 28.768 59.0713 28.96 59.0713 29.296V34.984C59.8393 34.36 60.9193 33.976 61.9993 33.976C63.3433 33.976 64.3033 34.432 65.0953 35.152C66.3672 36.304 66.9433 38.176 66.9433 40.192ZM63.1993 40.192C63.1993 38.752 62.8633 37.048 61.0872 37.048C60.3672 37.048 59.6473 37.384 59.0713 37.816V42.472C59.5753 42.904 60.3193 43.336 61.0153 43.336C62.8633 43.336 63.1993 41.704 63.1993 40.192ZM80.4639 40.168C80.4639 43.696 78.2319 46.312 74.3439 46.312C70.2879 46.312 68.3919 43.696 68.3919 40.12C68.3919 36.592 70.6239 33.976 74.5119 33.976C78.5679 33.976 80.4639 36.592 80.4639 40.168ZM76.7439 40.144C76.7439 38.368 76.2399 36.808 74.4639 36.808C72.6879 36.808 72.1119 38.344 72.1119 40.096C72.1119 41.872 72.6159 43.48 74.3919 43.48C76.1679 43.48 76.7439 41.896 76.7439 40.144ZM94.4913 45.448C94.4913 45.808 94.2513 46 93.9153 46H92.6433C91.2273 46 90.6513 45.592 90.3393 44.896H90.2913C89.6433 45.64 88.1073 46.312 86.9313 46.312C83.4753 46.312 81.8673 43.576 81.8673 40.384C81.8673 36.136 84.5073 33.976 87.1473 33.976C88.4913 33.976 89.5713 34.6 90.0753 35.32L90.1473 34.792C90.1713 34.528 90.3873 34.312 90.6993 34.312H92.8593C93.1953 34.312 93.4353 34.504 93.4353 34.888V43.168C93.4353 43.408 93.5313 43.576 93.7953 43.576H93.9873C94.3233 43.576 94.4913 43.696 94.4913 44.056V45.448ZM89.8353 42.4V37.768C89.4033 37.384 88.6113 36.952 87.8913 36.952C86.7153 36.952 85.6113 37.912 85.6113 40.144C85.6113 41.632 85.9953 43.408 87.8193 43.408C88.6833 43.408 89.5473 42.76 89.8353 42.4ZM103.761 34.432C103.761 34.504 103.761 34.552 103.737 34.648L103.377 36.904C103.329 37.168 103.209 37.288 102.993 37.288C102.969 37.288 102.945 37.288 102.921 37.288C102.897 37.288 102.897 37.288 102.873 37.288C102.681 37.24 102.441 37.216 102.225 37.216C101.433 37.216 100.617 37.552 100.017 38.152V45.328C100.017 45.76 99.8246 46 99.3446 46H97.0886C96.6566 46 96.4166 45.784 96.4166 45.328V37.936V35.008C96.4166 34.432 96.7046 34.312 97.1126 34.312H99.0566C99.5126 34.312 99.7286 34.432 99.7526 34.792L99.8006 35.512C100.665 34.48 101.385 33.976 102.801 33.976C102.993 33.976 103.257 34.024 103.473 34.072C103.665 34.12 103.737 34.216 103.761 34.384C103.761 34.408 103.761 34.408 103.761 34.432ZM115.397 45.328C115.397 45.808 115.109 46 114.749 46H112.733C112.325 46 112.133 45.784 112.109 45.52L112.061 45.016C111.461 45.664 110.165 46.312 109.013 46.312C105.533 46.312 103.853 43.624 103.853 40.36C103.853 37.168 105.557 33.952 109.109 33.952C110.165 33.952 111.149 34.312 111.797 34.912V29.848C111.797 29.416 111.917 29.176 112.373 29.104L114.725 28.792C114.773 28.792 114.869 28.768 114.917 28.768C115.253 28.768 115.397 28.96 115.397 29.296V45.328ZM111.797 42.52V37.624C111.365 37.216 110.597 36.856 109.901 36.856C108.149 36.856 107.597 38.704 107.597 40.144C107.597 41.632 108.005 43.384 109.829 43.384C110.525 43.384 111.413 42.928 111.797 42.52Z" fill="#2D859C"/>
</svg>
